<svg width="267" height="33" viewBox="0 0 267 33" fill="none" xmlns="http://www.w3.org/2000/svg">
<g filter="url(#filter0_d_946_260)">
<path d="M8.59863 11.5391H12.96C14.1683 11.5391 15.1029 11.2464 15.7637 10.6611C16.4245 10.0758 16.7549 9.2168 16.7549 8.08398C16.7549 7.08333 16.415 6.29036 15.7354 5.70508C15.0745 5.11979 14.14 4.82715 12.9316 4.82715H8.59863V11.5391ZM4.37891 24V1.20215H13.7246C16.1035 1.20215 17.9255 1.8252 19.1904 3.07129C20.4743 4.2985 21.1162 5.85612 21.1162 7.74414C21.1162 9.3112 20.7858 10.5762 20.125 11.5391C19.4642 12.4831 18.6901 13.1439 17.8027 13.5215C18.4824 14.0124 18.9733 14.5316 19.2754 15.0791C19.5775 15.6077 19.8229 16.4385 20.0117 17.5713C20.4082 19.6481 21.2578 21.791 22.5605 24H17.8594C16.8776 22.3763 16.1224 20.3372 15.5938 17.8828C15.3861 16.9388 15.0934 16.2497 14.7158 15.8154C14.3571 15.3623 13.7812 15.1357 12.9883 15.1357H8.59863V24H4.37891ZM23.6934 15.5889C23.6934 12.889 24.4297 10.7555 25.9023 9.18848C27.3939 7.60254 29.263 6.80957 31.5098 6.80957C33.6999 6.80957 35.5218 7.61198 36.9756 9.2168C38.4482 10.8216 39.1846 12.9173 39.1846 15.5039C39.1846 16.2025 39.1657 16.7217 39.1279 17.0615H27.7998C27.7998 18.2132 28.1491 19.2044 28.8477 20.0352C29.5651 20.8659 30.5374 21.2812 31.7646 21.2812C32.6331 21.2812 33.3978 21.0641 34.0586 20.6299C34.7383 20.1768 35.248 19.6104 35.5879 18.9307L38.958 20.1201C38.4294 21.3662 37.5326 22.4141 36.2676 23.2637C35.0215 24.0944 33.4827 24.5098 31.6514 24.5098C29.3102 24.5098 27.3939 23.7074 25.9023 22.1025C24.4297 20.4788 23.6934 18.3076 23.6934 15.5889ZM27.8281 14.2578H35.0781C35.0781 13.0872 34.7572 12.0866 34.1152 11.2559C33.4922 10.4251 32.6237 10.0098 31.5098 10.0098C30.377 10.0098 29.4801 10.4346 28.8193 11.2842C28.1774 12.1149 27.847 13.1061 27.8281 14.2578ZM41.0254 15.6738C41.0254 12.9551 41.7523 10.8027 43.2061 9.2168C44.6598 7.61198 46.529 6.80957 48.8135 6.80957C50.5316 6.80957 51.9665 7.33822 53.1182 8.39551C54.2699 9.43392 54.9873 10.6139 55.2705 11.9355L51.8438 12.8701C51.6361 12.1715 51.2773 11.5674 50.7676 11.0576C50.2578 10.529 49.6253 10.2646 48.8701 10.2646C47.6807 10.2646 46.765 10.7839 46.123 11.8223C45.5 12.8418 45.1885 14.1257 45.1885 15.6738C45.1885 17.3919 45.5378 18.723 46.2363 19.667C46.9349 20.5921 47.8128 21.0547 48.8701 21.0547C49.7008 21.0547 50.4183 20.7715 51.0225 20.2051C51.6266 19.6198 52.0326 18.959 52.2402 18.2227L55.667 19.1855C55.3271 20.5827 54.5247 21.8193 53.2598 22.8955C51.9948 23.9717 50.5127 24.5098 48.8135 24.5098C46.5101 24.5098 44.6315 23.7074 43.1777 22.1025C41.7428 20.4977 41.0254 18.3548 41.0254 15.6738ZM57.1396 15.5889C57.1396 12.889 57.876 10.7555 59.3486 9.18848C60.8402 7.60254 62.7093 6.80957 64.9561 6.80957C67.1462 6.80957 68.9681 7.61198 70.4219 9.2168C71.8945 10.8216 72.6309 12.9173 72.6309 15.5039C72.6309 16.2025 72.612 16.7217 72.5742 17.0615H61.2461C61.2461 18.2132 61.5954 19.2044 62.2939 20.0352C63.0114 20.8659 63.9837 21.2812 65.2109 21.2812C66.0794 21.2812 66.8441 21.0641 67.5049 20.6299C68.1846 20.1768 68.6943 19.6104 69.0342 18.9307L72.4043 20.1201C71.8757 21.3662 70.9788 22.4141 69.7139 23.2637C68.4678 24.0944 66.929 24.5098 65.0977 24.5098C62.7565 24.5098 60.8402 23.7074 59.3486 22.1025C57.876 20.4788 57.1396 18.3076 57.1396 15.5889ZM61.2744 14.2578H68.5244C68.5244 13.0872 68.2035 12.0866 67.5615 11.2559C66.9385 10.4251 66.07 10.0098 64.9561 10.0098C63.8232 10.0098 62.9264 10.4346 62.2656 11.2842C61.6237 12.1149 61.2933 13.1061 61.2744 14.2578ZM73.9902 10.7461V7.31934H76.4824V2.47656H80.5039V7.31934H84.1289V10.7461H80.5039V18.5059C80.5039 19.8652 81.0986 20.5449 82.2881 20.5449H84.1572V24H81.7783C80.1546 24 78.8613 23.5846 77.8984 22.7539C76.9544 21.9232 76.4824 20.5921 76.4824 18.7607V10.7461H73.9902ZM90.0479 19.1855C90.0479 19.7331 90.2555 20.1956 90.6709 20.5732C91.1051 20.9508 91.681 21.1396 92.3984 21.1396C93.4746 21.1396 94.3903 20.7809 95.1455 20.0635C95.9007 19.346 96.2783 18.402 96.2783 17.2314V15.9287C95.5231 16.1175 94.5602 16.2969 93.3896 16.4668C91.1618 16.8255 90.0479 17.7318 90.0479 19.1855ZM85.9131 19.5254C85.9131 17.9961 86.4889 16.7406 87.6406 15.7588C88.8112 14.777 90.5482 14.1162 92.8516 13.7764C94.6641 13.4743 95.8063 13.2572 96.2783 13.125V12.2471C96.2783 11.5107 96.014 10.9538 95.4854 10.5762C94.9567 10.1797 94.2581 9.98145 93.3896 9.98145C91.6527 9.98145 90.1234 10.6989 88.8018 12.1338L86.3662 10.0381C88.1787 7.88574 90.5104 6.80957 93.3613 6.80957C95.8724 6.80957 97.6566 7.41374 98.7139 8.62207C99.79 9.81152 100.328 11.5107 100.328 13.7197V24H96.3916V22.1025C96.0329 22.7633 95.4382 23.3298 94.6074 23.8018C93.7956 24.2738 92.861 24.5098 91.8037 24.5098C89.9912 24.5098 88.5563 24.0472 87.499 23.1221C86.4417 22.1969 85.9131 20.998 85.9131 19.5254ZM102.594 20.46L105.454 18.7607C106.587 20.4222 108.05 21.2529 109.844 21.2529C110.656 21.2529 111.288 21.0924 111.741 20.7715C112.213 20.4316 112.449 19.9974 112.449 19.4688C112.449 19.2988 112.421 19.1478 112.364 19.0156C112.326 18.8646 112.251 18.723 112.138 18.5908C112.024 18.4587 111.921 18.3454 111.826 18.251C111.732 18.1566 111.571 18.0527 111.345 17.9395C111.137 17.8262 110.967 17.7412 110.835 17.6846C110.703 17.609 110.495 17.5241 110.212 17.4297C109.929 17.3164 109.712 17.2409 109.561 17.2031C109.41 17.1465 109.164 17.071 108.824 16.9766C108.484 16.8633 108.239 16.7783 108.088 16.7217C106.653 16.2497 105.501 15.6455 104.633 14.9092C103.764 14.1729 103.33 13.1061 103.33 11.709C103.33 10.2174 103.972 9.02799 105.256 8.14062C106.54 7.25326 108.078 6.80957 109.872 6.80957C111.269 6.80957 112.581 7.16829 113.809 7.88574C115.036 8.60319 115.951 9.53776 116.556 10.6895L113.894 12.3037C112.723 10.8122 111.392 10.0664 109.9 10.0664C109.126 10.0664 108.522 10.2269 108.088 10.5479C107.673 10.8499 107.465 11.2559 107.465 11.7656C107.465 11.9355 107.484 12.096 107.521 12.2471C107.578 12.3981 107.663 12.5397 107.776 12.6719C107.89 12.804 107.993 12.9268 108.088 13.04C108.201 13.1344 108.352 13.2383 108.541 13.3516C108.749 13.4648 108.919 13.5592 109.051 13.6348C109.202 13.6914 109.41 13.7669 109.674 13.8613C109.938 13.9557 110.146 14.0312 110.297 14.0879C110.448 14.1257 110.674 14.2012 110.977 14.3145C111.279 14.4089 111.496 14.4749 111.628 14.5127C114.932 15.6077 116.584 17.2692 116.584 19.4971C116.584 20.8942 116.008 22.0837 114.856 23.0654C113.705 24.0283 112.072 24.5098 109.957 24.5098C108.314 24.5098 106.842 24.1416 105.539 23.4053C104.255 22.6689 103.273 21.6872 102.594 20.46Z" fill="#645CFF"/>
<path d="M119.756 24V1.20215H134.482V4.82715H123.976V10.8027H133.406V14.3711H123.976V24H119.756ZM139.41 19.1855C139.41 19.7331 139.618 20.1956 140.033 20.5732C140.467 20.9508 141.043 21.1396 141.761 21.1396C142.837 21.1396 143.753 20.7809 144.508 20.0635C145.263 19.346 145.641 18.402 145.641 17.2314V15.9287C144.885 16.1175 143.923 16.2969 142.752 16.4668C140.524 16.8255 139.41 17.7318 139.41 19.1855ZM135.275 19.5254C135.275 17.9961 135.851 16.7406 137.003 15.7588C138.174 14.777 139.91 14.1162 142.214 13.7764C144.026 13.4743 145.169 13.2572 145.641 13.125V12.2471C145.641 11.5107 145.376 10.9538 144.848 10.5762C144.319 10.1797 143.62 9.98145 142.752 9.98145C141.015 9.98145 139.486 10.6989 138.164 12.1338L135.729 10.0381C137.541 7.88574 139.873 6.80957 142.724 6.80957C145.235 6.80957 147.019 7.41374 148.076 8.62207C149.152 9.81152 149.69 11.5107 149.69 13.7197V24H145.754V22.1025C145.395 22.7633 144.8 23.3298 143.97 23.8018C143.158 24.2738 142.223 24.5098 141.166 24.5098C139.354 24.5098 137.919 24.0472 136.861 23.1221C135.804 22.1969 135.275 20.998 135.275 19.5254ZM153.174 24V7.31934H157.082V9.0752C157.384 8.56543 157.894 8.0651 158.611 7.57422C159.348 7.06445 160.216 6.80957 161.217 6.80957C163.01 6.80957 164.341 7.71582 165.21 9.52832C165.418 9.1696 165.673 8.82031 165.975 8.48047C166.296 8.12174 166.834 7.75358 167.589 7.37598C168.363 6.99837 169.213 6.80957 170.138 6.80957C173.612 6.80957 175.349 8.97135 175.349 13.2949V24H171.271V13.3799C171.271 12.3415 171.119 11.5674 170.817 11.0576C170.515 10.529 169.996 10.2646 169.26 10.2646C168.354 10.2646 167.617 10.6517 167.051 11.4258C166.503 12.181 166.229 13.0967 166.229 14.1729V24H162.236V13.2666C162.236 11.2653 161.566 10.2646 160.226 10.2646C159.244 10.2646 158.498 10.6234 157.988 11.3408C157.479 12.0394 157.224 12.974 157.224 14.1445V24H153.174ZM179.002 5.19531V0.890625H183.193V5.19531H179.002ZM179.115 24V7.31934H183.108V24H179.115ZM187.385 24V0.46582H191.435V24H187.385ZM195.598 5.19531V0.890625H199.789V5.19531H195.598ZM195.711 24V7.31934H199.704V24H195.711ZM206.869 19.1855C206.869 19.7331 207.077 20.1956 207.492 20.5732C207.926 20.9508 208.502 21.1396 209.22 21.1396C210.296 21.1396 211.212 20.7809 211.967 20.0635C212.722 19.346 213.1 18.402 213.1 17.2314V15.9287C212.344 16.1175 211.382 16.2969 210.211 16.4668C207.983 16.8255 206.869 17.7318 206.869 19.1855ZM202.734 19.5254C202.734 17.9961 203.31 16.7406 204.462 15.7588C205.632 14.777 207.369 14.1162 209.673 13.7764C211.485 13.4743 212.628 13.2572 213.1 13.125V12.2471C213.1 11.5107 212.835 10.9538 212.307 10.5762C211.778 10.1797 211.079 9.98145 210.211 9.98145C208.474 9.98145 206.945 10.6989 205.623 12.1338L203.188 10.0381C205 7.88574 207.332 6.80957 210.183 6.80957C212.694 6.80957 214.478 7.41374 215.535 8.62207C216.611 9.81152 217.149 11.5107 217.149 13.7197V24H213.213V22.1025C212.854 22.7633 212.259 23.3298 211.429 23.8018C210.617 24.2738 209.682 24.5098 208.625 24.5098C206.812 24.5098 205.378 24.0472 204.32 23.1221C203.263 22.1969 202.734 20.998 202.734 19.5254ZM220.633 24V7.31934H224.513V8.90527C224.853 8.33887 225.353 7.84798 226.014 7.43262C226.693 7.01725 227.477 6.80957 228.364 6.80957C229.233 6.80957 229.941 6.91341 230.488 7.12109V10.8311C229.827 10.6234 229.129 10.5195 228.393 10.5195C227.184 10.5195 226.259 10.9915 225.617 11.9355C224.994 12.8796 224.683 14.1445 224.683 15.7305V24H220.633ZM231.395 15.5889C231.395 12.889 232.131 10.7555 233.604 9.18848C235.095 7.60254 236.964 6.80957 239.211 6.80957C241.401 6.80957 243.223 7.61198 244.677 9.2168C246.149 10.8216 246.886 12.9173 246.886 15.5039C246.886 16.2025 246.867 16.7217 246.829 17.0615H235.501C235.501 18.2132 235.85 19.2044 236.549 20.0352C237.266 20.8659 238.239 21.2812 239.466 21.2812C240.334 21.2812 241.099 21.0641 241.76 20.6299C242.439 20.1768 242.949 19.6104 243.289 18.9307L246.659 20.1201C246.131 21.3662 245.234 22.4141 243.969 23.2637C242.723 24.0944 241.184 24.5098 239.353 24.5098C237.011 24.5098 235.095 23.7074 233.604 22.1025C232.131 20.4788 231.395 18.3076 231.395 15.5889ZM235.529 14.2578H242.779C242.779 13.0872 242.458 12.0866 241.816 11.2559C241.193 10.4251 240.325 10.0098 239.211 10.0098C238.078 10.0098 237.181 10.4346 236.521 11.2842C235.879 12.1149 235.548 13.1061 235.529 14.2578ZM248.415 20.46L251.275 18.7607C252.408 20.4222 253.871 21.2529 255.665 21.2529C256.477 21.2529 257.109 21.0924 257.562 20.7715C258.035 20.4316 258.271 19.9974 258.271 19.4688C258.271 19.2988 258.242 19.1478 258.186 19.0156C258.148 18.8646 258.072 18.723 257.959 18.5908C257.846 18.4587 257.742 18.3454 257.647 18.251C257.553 18.1566 257.393 18.0527 257.166 17.9395C256.958 17.8262 256.788 17.7412 256.656 17.6846C256.524 17.609 256.316 17.5241 256.033 17.4297C255.75 17.3164 255.533 17.2409 255.382 17.2031C255.231 17.1465 254.985 17.071 254.646 16.9766C254.306 16.8633 254.06 16.7783 253.909 16.7217C252.474 16.2497 251.323 15.6455 250.454 14.9092C249.586 14.1729 249.151 13.1061 249.151 11.709C249.151 10.2174 249.793 9.02799 251.077 8.14062C252.361 7.25326 253.9 6.80957 255.693 6.80957C257.09 6.80957 258.403 7.16829 259.63 7.88574C260.857 8.60319 261.773 9.53776 262.377 10.6895L259.715 12.3037C258.544 10.8122 257.213 10.0664 255.722 10.0664C254.948 10.0664 254.343 10.2269 253.909 10.5479C253.494 10.8499 253.286 11.2559 253.286 11.7656C253.286 11.9355 253.305 12.096 253.343 12.2471C253.399 12.3981 253.484 12.5397 253.598 12.6719C253.711 12.804 253.815 12.9268 253.909 13.04C254.022 13.1344 254.174 13.2383 254.362 13.3516C254.57 13.4648 254.74 13.5592 254.872 13.6348C255.023 13.6914 255.231 13.7669 255.495 13.8613C255.759 13.9557 255.967 14.0312 256.118 14.0879C256.269 14.1257 256.496 14.2012 256.798 14.3145C257.1 14.4089 257.317 14.4749 257.449 14.5127C260.753 15.6077 262.405 17.2692 262.405 19.4971C262.405 20.8942 261.829 22.0837 260.678 23.0654C259.526 24.0283 257.893 24.5098 255.778 24.5098C254.136 24.5098 252.663 24.1416 251.36 23.4053C250.076 22.6689 249.095 21.6872 248.415 20.46Z" fill="#333538"/>
</g>
<defs>
<filter id="filter0_d_946_260" x="0.378906" y="0.46582" width="266.026" height="32.0439" filterUnits="userSpaceOnUse" color-interpolation-filters="sRGB">
<feFlood flood-opacity="0" result="BackgroundImageFix"/>
<feColorMatrix in="SourceAlpha" type="matrix" values="0 0 0 0 0 0 0 0 0 0 0 0 0 0 0 0 0 0 127 0" result="hardAlpha"/>
<feOffset dy="4"/>
<feGaussianBlur stdDeviation="2"/>
<feComposite in2="hardAlpha" operator="out"/>
<feColorMatrix type="matrix" values="0 0 0 0 0 0 0 0 0 0 0 0 0 0 0 0 0 0 0.25 0"/>
<feBlend mode="normal" in2="BackgroundImageFix" result="effect1_dropShadow_946_260"/>
<feBlend mode="normal" in="SourceGraphic" in2="effect1_dropShadow_946_260" result="shape"/>
</filter>
</defs>
</svg>
